<svg xmlns="http://www.w3.org/2000/svg" viewBox="0 0 400 300" width="406" height="306" class="illustration styles_illustrationTablet__1DWOa"><g id="_379_fitness_flatline" data-name="#379_fitness_flatline"><path d="M203.73,56.94a15.77,15.77,0,0,1-3.14-.88c-3.38-1.35-6.31-4.26-6.89-7.86a14.74,14.74,0,0,1-.13-2.4c0-3.25.49-7.75,2.34-10.55.94-1.42,2.79-2.39,4.38-1.77-.55.42-1.32-.44-1.08-1.09a2.27,2.27,0,0,1,1.61-1.14c2.85-.87,6.1-1.13,8.67.38a1.47,1.47,0,0,1,.15-2,3.21,3.21,0,0,1,2.08-.75c4.77-.31,9.11,3.65,10.33,8.27s-.15,9.6-2.55,13.73a14.65,14.65,0,0,1-4.76,5.3c-2.05,1.27-3.8.94-6.08,1A23.27,23.27,0,0,1,203.73,56.94Z" fill="#fff"></path><path d="M207.39,57.73a21.89,21.89,0,0,1-3.74-.3,16.22,16.22,0,0,1-3.24-.9c-3.87-1.55-6.63-4.71-7.2-8.25a14.07,14.07,0,0,1-.14-2.48c0-3.33.49-7.9,2.43-10.83a5,5,0,0,1,3.18-2.13,1.21,1.21,0,0,1,.06-.62,2.74,2.74,0,0,1,1.93-1.45c2.2-.67,5.26-1.18,8-.1a2.17,2.17,0,0,1,.64-1.42,3.61,3.61,0,0,1,2.4-.89c5.25-.36,9.65,4.13,10.84,8.64,1.13,4.27.21,9.28-2.6,14.11A15.1,15.1,0,0,1,215,56.59a8.48,8.48,0,0,1-4.95,1.08l-1.36,0Zm-8.18-23.94a3.8,3.8,0,0,0-2.88,1.74c-1.9,2.86-2.23,7.67-2.26,10.28a13,13,0,0,0,.13,2.31c.5,3.15,3.08,6.08,6.58,7.48a14.9,14.9,0,0,0,3,.84,21.72,21.72,0,0,0,4.82.26l1.41,0a7.52,7.52,0,0,0,4.43-.93,14.16,14.16,0,0,0,4.58-5.13c2.68-4.6,3.57-9.35,2.51-13.36s-5-8.2-9.82-7.89A2.65,2.65,0,0,0,210,30a1.15,1.15,0,0,0-.34.81.68.68,0,0,0,.18.49.49.49,0,0,1,.06.66.5.5,0,0,1-.65.13c-2.66-1.56-6-1-8.27-.33-.52.15-1.13.39-1.29.84a.32.32,0,0,0,0,.25,3.1,3.1,0,0,1,.77.19.53.53,0,0,1,.31.4.49.49,0,0,1-.19.46,1,1,0,0,1-1.3,0Z" fill="#231f20"></path><path d="M167.3,166.07c0,.67-7.54,5.94-16.39,20.35a119.71,119.71,0,0,0-18.79-4.52,99.63,99.63,0,0,0-24.27-.86l-2.5,9.56s46.22,16.38,52.75,14,27.24-28.3,27.24-28.3" fill="#fff"></path><path d="M156.29,205.3c-10.83,0-49.35-13.6-51.11-14.23a.49.49,0,0,1-.31-.59l2.49-9.56a.53.53,0,0,1,.43-.38,101.39,101.39,0,0,1,24.41.87,122,122,0,0,1,18.49,4.41,90.56,90.56,0,0,1,14.89-18.6,15.38,15.38,0,0,0,1.23-1.26.5.5,0,0,1,.46-.39.48.48,0,0,1,.53.47c0,.4-.28.69-1.53,1.9a89.93,89.93,0,0,0-14.94,18.74.49.49,0,0,1-.58.21A120.72,120.72,0,0,0,132,182.4a102.19,102.19,0,0,0-23.8-.9L106,190.28c16.06,5.68,47,15.66,52,13.83,6.33-2.33,26.81-27.88,27-28.14a.5.5,0,1,1,.78.62c-.85,1.07-20.87,26-27.46,28.46A6.15,6.15,0,0,1,156.29,205.3Zm10.51-39.2Z" fill="#231f20"></path><polygon points="175.22 145.37 159.76 172.01 183.32 186.89 198.77 166.82 175.22 145.37" fill="#231f20"></polygon><path d="M183.32,187.39a.5.5,0,0,1-.26-.08L159.5,172.43a.5.5,0,0,1-.17-.67l15.46-26.64a.53.53,0,0,1,.35-.25.51.51,0,0,1,.41.13l23.55,21.46a.49.49,0,0,1,.06.67l-15.44,20.06A.51.51,0,0,1,183.32,187.39Zm-22.89-15.55,22.78,14.39,14.88-19.35-22.75-20.73Z" fill="#231f20"></path><path d="M196.89,178.48s17.42,14.46,21.91,17.63c0,0-1.37,12.14,3.73,21.8s19.57,26.94,19.57,26.94l8.91-1.74s-14.15-44.66-17.26-53.47-17.37-30.12-17.37-30.12Z" fill="#fff"></path><path d="M242.1,245.35a.53.53,0,0,1-.39-.18c-.14-.17-14.56-17.43-19.62-27-4.67-8.84-4-19.85-3.82-21.79-4.79-3.45-21.53-17.35-21.7-17.49a.47.47,0,0,1-.18-.36.5.5,0,0,1,.15-.38l19.49-19a.52.52,0,0,1,.4-.14.51.51,0,0,1,.36.22c.59.88,14.34,21.47,17.43,30.24s17.13,53,17.27,53.48a.54.54,0,0,1-.05.41.49.49,0,0,1-.33.23l-8.92,1.74Zm-44.47-66.9c2.71,2.24,17.43,14.41,21.45,17.25a.52.52,0,0,1,.21.47c0,.12-1.28,12.1,3.68,21.51,4.7,8.9,17.6,24.55,19.32,26.62l8.08-1.57c-1.62-5.09-14.2-44.74-17.09-52.92-2.79-7.9-14.82-26.25-17-29.51Z" fill="#231f20"></path><path d="M167.31,130.66s-1.79,16.48.73,25.11,29.71,29.67,29.71,29.67l18.63-25.92L205.23,138Z" fill="#231f20"></path><path d="M197.75,185.94a.47.47,0,0,1-.3-.1c-1.12-.86-27.36-21.26-29.89-29.93s-.82-24.63-.74-25.31a.45.45,0,0,1,.2-.34.49.49,0,0,1,.39-.09l37.92,7.29a.5.5,0,0,1,.34.26l11.15,21.57a.49.49,0,0,1,0,.52l-18.62,25.93a.5.5,0,0,1-.34.2Zm-30-54.69c-.27,2.9-1.44,16.82.77,24.38,2.27,7.8,25.73,26.44,29.13,29.1l18.14-25.25L204.9,138.4Z" fill="#231f20"></path><path d="M107.85,181l-12.34-1.85S89.1,205.5,90,208c1.5,4,15.33-17.39,15.33-17.39Z" fill="#231f20"></path><path d="M90.59,209h-.06a1.17,1.17,0,0,1-1-.82c-1-2.57,4.81-26.39,5.47-29.1a.5.5,0,0,1,.56-.38l12.33,1.86a.51.51,0,0,1,.41.62l-2.5,9.56a.35.35,0,0,1-.06.14C94.79,207.88,91.31,209,90.59,209Zm5.3-29.25c-2.47,10.16-6,26.39-5.4,28.08.06.17.12.17.15.18h0c1.77,0,8.56-8.88,14.2-17.6l2.34-9Z" fill="#231f20"></path><path d="M241.66,244.33s-.76,7.8,1.37,8.66,28-2.13,27.1-4-19.88-7.63-19.88-7.63Z" fill="#231f20"></path><path d="M244.89,253.64a6.91,6.91,0,0,1-2-.19c-2.35-.95-1.8-7.8-1.67-9.17a.51.51,0,0,1,.33-.42l8.59-3a.47.47,0,0,1,.31,0c4.5,1.37,19.26,6,20.18,7.89a.78.78,0,0,1-.17.87C268.8,251.37,251.19,253.64,244.89,253.64Zm-2.76-8.94c-.26,3.07-.1,7.35,1.09,7.83,2.28.93,24.21-2,26.34-3.45-1.25-1.2-10.55-4.51-19.3-7.18Z" fill="#231f20"></path><path d="M114.29,194.1h-.12a.5.5,0,0,1-.36-.61l3.42-12.92a.51.51,0,0,1,.61-.35.5.5,0,0,1,.36.61l-3.42,12.91A.5.5,0,0,1,114.29,194.1Z" fill="#231f20"></path><path d="M237.86,238.81a.5.5,0,0,1-.45-.27.51.51,0,0,1,.22-.67l10-5.07a.49.49,0,1,1,.45.88l-10,5.08A.44.44,0,0,1,237.86,238.81Z" fill="#231f20"></path><path d="M219.38,79.93l10.77,30.21a188.69,188.69,0,0,1,23.87-11s-.87-5.8,1.74-8.19,4.77-3.76,5.06-3.07,1.32,2.73,1.32,2.73,2.48-3.42,3.93-2.73,2.75,8.77,2.74,10.92-35.25,35-42.76,30.18-18.48-27.31-18.48-27.31" fill="#fff"></path><path d="M228,130a4,4,0,0,1-2.17-.56c-7.54-4.8-18.21-26.59-18.66-27.51a.5.5,0,0,1,.9-.44c.11.22,11,22.46,18.3,27.11,1,.65,2.8.5,5.26-.45,12.42-4.8,36.15-27.24,36.73-29.36,0-2.65-1.46-10-2.45-10.42-.74-.35-2.41,1.33-3.32,2.57a.49.49,0,0,1-.85-.07c0-.08-.92-1.84-1.27-2.62-.45.09-1.88.87-4.32,3.11s-1.59,7.69-1.59,7.75a.49.49,0,0,1-.31.54,189.69,189.69,0,0,0-23.8,11,.5.5,0,0,1-.43,0,.5.5,0,0,1-.3-.3L218.91,80.1a.51.51,0,0,1,.31-.64.48.48,0,0,1,.63.3l10.57,29.65a198.74,198.74,0,0,1,23.06-10.59c-.15-1.4-.45-6,1.94-8.24,1.49-1.36,4.14-3.62,5.3-3.36a.77.77,0,0,1,.56.46c.17.41.63,1.34,1,2,.9-1.08,2.67-2.9,4-2.25,1.94.91,3,9.88,3,11.38,0,2.17-21.05,21.62-33.62,28.47C232.39,129.07,229.83,130,228,130Z" fill="#231f20"></path><path d="M262.17,90.16a39.5,39.5,0,0,1,1.67,4.15,8.19,8.19,0,0,1,.46,4.21c-.29,1.39-1.37,2.64-2.59,2.53-1.39-.12-2.28-1.83-2.64-3.42" fill="#fff"></path><path d="M261.86,101.56h-.19c-2.1-.19-2.89-3-3.08-3.81a.5.5,0,0,1,.37-.6.49.49,0,0,1,.6.38c.3,1.33,1.06,2.93,2.19,3s1.83-1,2.06-2.14a8,8,0,0,0-.44-4c-.46-1.41-1.07-2.78-1.65-4.1a.5.5,0,0,1,.25-.66.49.49,0,0,1,.66.25,44.86,44.86,0,0,1,1.69,4.2,8.87,8.87,0,0,1,.47,4.47C264.48,100.1,263.31,101.56,261.86,101.56Z" fill="#231f20"></path><path d="M227,116h0a.5.5,0,0,1-.46-.53c.24-3.14,3.23-5.59,3.36-5.69a.5.5,0,0,1,.63.78s-2.78,2.29-3,5A.5.5,0,0,1,227,116Z" fill="#231f20"></path><path d="M209.25,139.08l-44.33-7.88s4.34-27.08,4.31-51.27c0-7.57,22-19.09,30.56-15.82s17.8,11.16,20.41,15.1C221.28,80.83,207,130.66,209.25,139.08Z" fill="#43F43F"></path><path d="M172.22,84.12s-3.49,22.14,3.08,21.92S191.56,78.79,187.06,73,171.34,69.42,172.22,84.12Z" fill="#231f20"></path><path d="M175.2,106.54a3,3,0,0,1-2.33-1.09c-3.72-4.21-1.34-20.12-1.15-21.35-.41-7.11,2-12.36,6.53-14a8,8,0,0,1,9.21,2.64c2.93,3.78.31,15.54-3.79,24.27-1.66,3.53-4.95,9.47-8.36,9.58Zm5.88-36a7,7,0,0,0-2.48.45c-4.08,1.54-6.28,6.44-5.88,13.11v.11c0,.17-2.58,16.66.9,20.59a2.1,2.1,0,0,0,1.66.76c2.07-.07,4.87-3.44,7.49-9,3.91-8.33,6.48-19.92,3.9-23.25A7.07,7.07,0,0,0,181.08,70.53Z" fill="#231f20"></path><path d="M132.51,98.73c-1.12,3.71,9.05,32.29,9.05,32.29s3.94,14.62,5.83,15.33,7.69,1.08,9.18,1.08c3.45,0,.28-5.65-.16-5.75,0,0,2.3,1.06,3.35-.66s.1-3.42-.8-6-5.75-2.82-5.75-2.82c-.41-5.3-5.55-29.23-5.55-29.23s30.67-14.08,34.37-16,8.32-9.67,0-14.86S133.64,95,132.51,98.73Z" fill="#fff"></path><path d="M156.57,147.92c-1.32,0-7.3-.34-9.36-1.11s-5.2-12.17-6.14-15.65c-1-2.91-10.17-28.81-9-32.57h0c1-3.16,25-20.38,39.7-25.9,5.08-1.91,8.63-2.26,10.57-1,4.17,2.6,5,5.69,4.88,7.81a10,10,0,0,1-4.92,7.91c-3.5,1.86-30.4,14.23-34,15.9.67,3.14,4.85,22.86,5.43,28.48,1.27.13,4.91.72,5.76,3.11.14.4.28.77.41,1.13.76,2,1.36,3.63.35,5.29a2.6,2.6,0,0,1-2.57,1.21,7.53,7.53,0,0,1,1,3.71,1.87,1.87,0,0,1-2.08,1.72ZM133,98.88c-.79,2.6,5,20.55,9,32,1.87,6.94,4.52,14.63,5.53,15,1.79.66,7.51,1,9,1h0c.82,0,1-.38,1-.52.44-1.18-1-3.86-1.4-4.28a.49.49,0,0,1-.24-.6.5.5,0,0,1,.58-.33l.1,0h0c.07,0,1.91.85,2.71-.47s.29-2.51-.42-4.42c-.14-.36-.28-.74-.43-1.14-.65-1.85-4-2.42-5.29-2.49a.51.51,0,0,1-.48-.46c-.4-5.21-5.48-28.93-5.54-29.17a.5.5,0,0,1,.28-.56c.31-.14,30.7-14.09,34.35-16a9.06,9.06,0,0,0,4.39-7.06c.1-2.67-1.43-5.07-4.41-6.94-1.63-1-5-.63-9.69,1.13-15.18,5.69-38.34,22.77-39.1,25.26Z" fill="#231f20"></path><path d="M188.51,179.38a.39.39,0,0,1-.18,0c-10.6-4.64-20.28-22.6-20.68-23.37a.42.42,0,0,1,.18-.59.44.44,0,0,1,.6.18c.1.18,9.94,18.45,20.26,23a.44.44,0,0,1-.18.85Z" fill="#fff"></path><path d="M221.54,41.83c-.74-1.41-3.42-1.14-5-1.33a41,41,0,0,0-8.42-.46A13.7,13.7,0,0,0,200.38,43C195.65,47,196.51,56,196,61.72c-.25,2.92-.39,5.91-.92,8.8v.08c.18,1.14,2.68,16.35,8.23,19.56,5.76,3.32,7.71-14.29,7.71-14.29l.42-11.13s6,1,8.18-4.27a32.44,32.44,0,0,0,2.05-12.23C221.73,46.66,222.27,43.23,221.54,41.83Z" fill="#fff"></path><path d="M204.75,91.08a3.39,3.39,0,0,1-1.66-.49c-5.68-3.29-8.2-18.22-8.47-19.92a1.92,1.92,0,0,1,0-.24,64.1,64.1,0,0,0,.75-6.76c0-.67.1-1.33.16-2,.09-1.13.14-2.4.18-3.74.18-5.33.4-12,4.35-15.34a14.13,14.13,0,0,1,8.06-3.06,41.7,41.7,0,0,1,8.52.46c.34,0,.73.06,1.15.08,1.55.08,3.49.17,4.19,1.52.61,1.17.45,3.39.32,5.18,0,.56-.08,1.07-.09,1.46,0,3.58-.32,8.23-2.08,12.43-1.92,4.56-6.56,4.71-8.17,4.62l-.4,10.6c-.06.55-1.47,12.81-5.54,14.87A2.75,2.75,0,0,1,204.75,91.08Zm-9.14-20.55h0c.1.63,2.6,16.08,8,19.18a2,2,0,0,0,2,.15c3-1.51,4.61-10.66,5-14.06L211,64.73a.48.48,0,0,1,.19-.37.49.49,0,0,1,.39-.11c.23,0,5.63.83,7.64-4,1.7-4,2-8.56,2-12.05,0-.41,0-.94.09-1.53.12-1.57.28-3.72-.2-4.64h0c-.44-.84-2.06-.91-3.36-1-.44,0-.86,0-1.22-.08a40.62,40.62,0,0,0-8.32-.46,13.33,13.33,0,0,0-7.49,2.82c-3.62,3.09-3.83,9.48-4,14.61-.05,1.36-.09,2.64-.19,3.8l-.15,2A65.28,65.28,0,0,1,195.61,70.53Z" fill="#231f20"></path><path d="M211.26,70.59A7.81,7.81,0,0,1,205,66.87c-2.35-3.75-1.49-6.2-1.49-6.2a12,12,0,0,0,8,4.07Z" fill="#231f20"></path><path d="M211.25,71.09a8.27,8.27,0,0,1-6.68-4c-2.46-3.92-1.58-6.52-1.54-6.63a.49.49,0,0,1,.38-.33.52.52,0,0,1,.48.18S207,64,211.5,64.25a.49.49,0,0,1,.48.51l-.22,5.85a.5.5,0,0,1-.5.48Zm0-.5h0Zm-7.41-8.82a8.82,8.82,0,0,0,1.57,4.84,7.29,7.29,0,0,0,5.36,3.45l.18-4.85A12.26,12.26,0,0,1,203.85,61.77Z" fill="#231f20"></path><path d="M212.35,48.4s1.11,5.78,0,6.56-3-.69-3-.69" fill="#fff"></path><path d="M211.6,55.69a5,5,0,0,1-2.56-1,.5.5,0,1,1,.6-.8c.43.32,1.8,1.14,2.44.68.43-.31.33-3.2-.22-6.06a.5.5,0,0,1,.4-.58.48.48,0,0,1,.58.39c.35,1.84,1,6.2-.18,7.07A1.79,1.79,0,0,1,211.6,55.69Z" fill="#231f20"></path><ellipse cx="207.61" cy="49.61" rx="1.32" ry="0.94" transform="translate(122.98 245.58) rotate(-80.08)" fill="#231f20"></ellipse><ellipse cx="217.34" cy="50.77" rx="1.32" ry="0.94" transform="translate(129.9 256.12) rotate(-80.08)" fill="#231f20"></ellipse><path d="M200.11,52a2.86,2.86,0,0,0-.49-1.68,7.88,7.88,0,0,0-1.73-2.2,4,4,0,0,0-2.56-1,3.81,3.81,0,0,0-3.5,3.58,5.3,5.3,0,0,0,2.53,4.6,4.73,4.73,0,0,0,4.22.63" fill="#fff"></path><path d="M197.18,56.65a5.7,5.7,0,0,1-3.09-1,5.81,5.81,0,0,1-2.76-5.06,4.31,4.31,0,0,1,4-4h0a4.51,4.51,0,0,1,2.85,1.12A8.06,8.06,0,0,1,200.05,50a3.3,3.3,0,0,1,.56,2,.5.5,0,0,1-.56.44.51.51,0,0,1-.44-.56,2.32,2.32,0,0,0-.43-1.37,7,7,0,0,0-1.61-2.06,3.49,3.49,0,0,0-2.24-.89,3.31,3.31,0,0,0-3,3.11,4.78,4.78,0,0,0,2.31,4.15,4.24,4.24,0,0,0,3.76.58.5.5,0,0,1,.37.93A4.28,4.28,0,0,1,197.18,56.65Z" fill="#231f20"></path><path d="M215,59.91c-.28,0-7,0-10.75-4a.5.5,0,1,1,.72-.69c3.51,3.65,10,3.7,10,3.7a.51.51,0,0,1,.5.5A.5.5,0,0,1,215,59.91Z" fill="#231f20"></path><rect x="193.22" y="39.01" width="30.59" height="5.26" rx="1.27" transform="translate(5.81 -22.58) rotate(6.29)" fill="#fff"></rect><path d="M222.31,46.3h-.2l-27.88-3.07a1.77,1.77,0,0,1-1.56-2l.29-2.69a1.77,1.77,0,0,1,2-1.57l27.88,3.07a1.76,1.76,0,0,1,1.19.65,1.79,1.79,0,0,1,.38,1.3l-.3,2.7A1.78,1.78,0,0,1,222.31,46.3ZM194.72,38a.76.76,0,0,0-.76.69l-.3,2.69a.77.77,0,0,0,.68.85l27.88,3.07h0a.78.78,0,0,0,.86-.68l.29-2.69a.78.78,0,0,0-.68-.86L194.81,38Z" fill="#231f20"></path><path d="M225.28,123.69H183.65a4.39,4.39,0,0,1-4.39-4.39h0a4.39,4.39,0,0,1,4.39-4.38h32.73c7.12,0,12.47-14.12,18.72-21S255,82,272.7,81.86Z" fill="#e6e7e8"></path><path d="M225.28,124.19H183.65a4.89,4.89,0,1,1,0-9.77h32.73c4.43,0,8.35-6.15,12.14-12.09a67,67,0,0,1,6.21-8.71c6.78-7.43,21.33-12.13,38-12.26h0a.48.48,0,0,1,.46.32.5.5,0,0,1-.13.55l-47.41,41.83A.53.53,0,0,1,225.28,124.19Zm-41.63-8.77a3.89,3.89,0,1,0,0,7.77h41.44l46.26-40.81c-15.8.36-29.47,4.88-35.89,11.91a67.76,67.76,0,0,0-6.1,8.58c-3.93,6.17-8,12.55-13,12.55Z" fill="#231f20"></path><path d="M302.59,123.69s-25.28,28.14-25.28,37.94c0,15,25.28,95,25.28,95H313s-25.57-79-26.16-93.66c-.46-11.33,27.35-39.24,27.35-39.24Z" fill="#e6e7e8"></path><path d="M313,257.09h-10.4a.5.5,0,0,1-.48-.35c-1-3.27-25.3-80.22-25.3-95.11,0-9.87,24.37-37.12,25.4-38.27a.5.5,0,0,1,.38-.17h11.59a.5.5,0,0,1,.46.31.49.49,0,0,1-.1.54c-.28.28-27.66,27.89-27.21,38.87.58,14.44,25.88,92.73,26.14,93.52a.51.51,0,0,1-.07.45A.52.52,0,0,1,313,257.09Zm-10-1h9.35c-2.62-8.14-25.4-79.11-26-93.13-.42-10.44,21.92-33.91,26.66-38.77H302.81c-2.07,2.33-25,28.33-25,37.44C277.81,175.86,301.14,250.31,303,256.09Z" fill="#231f20"></path><path d="M225.28,123.69s-26.51,28.94-26.51,37.94c0,15,23.15,92.28,23.15,92.28h-10s-23.2-78.79-21.44-93.75c1.49-12.68,24.08-36.47,24.08-36.47Z" fill="#e6e7e8"></path><path d="M221.92,254.41h-10a.49.49,0,0,1-.48-.36c-1-3.22-23.21-79.06-21.46-94,1.5-12.7,23.29-35.78,24.22-36.76a.51.51,0,0,1,.36-.15h10.7a.51.51,0,0,1,.46.3.49.49,0,0,1-.09.54c-.26.29-26.38,28.89-26.38,37.6,0,14.74,22.9,91.37,23.13,92.14a.47.47,0,0,1-.08.44A.48.48,0,0,1,221.92,254.41Zm-9.61-1h8.94c-2.38-8-23-77.45-23-91.78,0-8.33,21.45-32.53,25.88-37.44H214.8c-2,2.08-22.41,24.19-23.8,36C189.33,174.39,210.62,247.61,212.31,253.41Z" fill="#231f20"></path><rect x="179.18" y="253.91" width="137.39" height="12.49" rx="6.24" fill="#231f20"></rect><path d="M310.33,266.9H185.42a6.75,6.75,0,0,1,0-13.49H310.33a6.75,6.75,0,0,1,0,13.49ZM185.42,254.41a5.75,5.75,0,0,0,0,11.49H310.33a5.75,5.75,0,1,0,0-11.49Z" fill="#231f20"></path><path d="M293.57,266.4h13.87a0,0,0,0,1,0,0v0a4.76,4.76,0,0,1-4.76,4.76h-4.36a4.76,4.76,0,0,1-4.76-4.76v0a0,0,0,0,1,0,0Z" fill="#231f20"></path><path d="M302.68,271.65h-4.36a5.26,5.26,0,0,1-5.25-5.25.5.5,0,0,1,.5-.5h13.87a.5.5,0,0,1,.5.5A5.26,5.26,0,0,1,302.68,271.65Zm-8.59-4.75a4.27,4.27,0,0,0,4.23,3.76h4.36a4.28,4.28,0,0,0,4.24-3.76Z" fill="#231f20"></path><path d="M206.74,266.4h13.87a0,0,0,0,1,0,0v0a4.76,4.76,0,0,1-4.76,4.76H211.5a4.76,4.76,0,0,1-4.76-4.76v0A0,0,0,0,1,206.74,266.4Z" fill="#e6e7e8"></path><path d="M215.86,271.66H211.5a5.27,5.27,0,0,1-5.26-5.26.5.5,0,0,1,.5-.5h13.87a.5.5,0,0,1,.5.5A5.26,5.26,0,0,1,215.86,271.66Zm-8.59-4.76a4.27,4.27,0,0,0,4.23,3.76h4.36a4.26,4.26,0,0,0,4.22-3.76Z" fill="#231f20"></path><path d="M91.78,266.4h13.87a0,0,0,0,1,0,0v0a4.76,4.76,0,0,1-4.76,4.76H96.54a4.76,4.76,0,0,1-4.76-4.76v0a0,0,0,0,1,0,0Z" fill="#e6e7e8"></path><path d="M100.9,271.66H96.54a5.27,5.27,0,0,1-5.26-5.26.5.5,0,0,1,.5-.5h13.87a.5.5,0,0,1,.5.5A5.26,5.26,0,0,1,100.9,271.66Zm-8.59-4.76a4.27,4.27,0,0,0,4.23,3.76h4.36a4.26,4.26,0,0,0,4.22-3.76Z" fill="#231f20"></path><path d="M225.28,123.69s14-26.46,25.73-35.08,42.36-9.52,55.44-3,17.24,19.92,10.41,38.06Z" fill="#231f20"></path><path d="M316.86,124.19H225.28a.49.49,0,0,1-.42-.24.5.5,0,0,1,0-.49c.58-1.09,14.19-26.66,25.88-35.25,12.11-8.91,43.21-9.4,56-3,13.69,6.84,17.47,20.58,10.65,38.68A.5.5,0,0,1,316.86,124.19Zm-90.74-1h90.39c6.45-17.39,2.81-30.57-10.28-37.11-12.52-6.26-43-5.8-54.92,2.93C240.88,96.67,228.47,118.87,226.12,123.19Z" fill="#231f20"></path><rect x="79.89" y="253.91" width="156.39" height="12.49" rx="6.24" fill="#e6e7e8"></rect><path d="M230,266.9H86.13a6.75,6.75,0,0,1,0-13.49H230a6.75,6.75,0,1,1,0,13.49ZM86.13,254.41a5.75,5.75,0,0,0,0,11.49H230a5.75,5.75,0,1,0,0-11.49Z" fill="#231f20"></path></g></svg>